<svg id="Capa_1" data-name="Capa 1" xmlns="http://www.w3.org/2000/svg" xmlns:xlink="http://www.w3.org/1999/xlink" width="63" height="60" viewBox="0 0 63 60"><defs><style>.cls-1{fill:#fff;}.cls-2{fill:#5ed7c6;}.cls-3{mask:url(#mask);}.cls-4{isolation:isolate;}.cls-5{fill:#572ee5;}</style><mask id="mask" x="9.49" y="20.53" width="57.78" height="23.64" maskUnits="userSpaceOnUse"><g id="mask-2"><polygon id="path-1" class="cls-1" points="9.49 20.53 67.27 20.53 67.27 44.17 9.49 44.17 9.49 20.53"/></g></mask></defs><title>logo-desktop</title><g id="GIFOS"><g id="_00-UI-Kit" data-name="00-UI-Kit"><g id="logo-desktop"><g id="Group-5"><polygon id="Fill-1" class="cls-2" points="0 0 0 59.11 59.11 59.11 59.11 46.44 54.89 46.44 54.89 54.89 4.22 54.89 4.22 4.22 42.22 4.22 42.22 16.89 54.89 16.89 54.89 25.33 59.11 25.33 59.11 12.67 46.44 0 0 0"/><g id="Group-4"><g class="cls-3"><g id="GIFOS-2" data-name="GIFOS" class="cls-4"><g class="cls-4"><path class="cls-5" d="M23.27,39.38a4.67,4.67,0,0,1-2,1.33,8.45,8.45,0,0,1-2.88.47,5.71,5.71,0,0,1-2.91-.73,4.82,4.82,0,0,1-1.94-2.1,7.48,7.48,0,0,1-.69-3.25v-.87a7.93,7.93,0,0,1,.64-3.32,4.78,4.78,0,0,1,1.87-2.14A5.4,5.4,0,0,1,18.19,28a5.37,5.37,0,0,1,3.56,1.08,4.69,4.69,0,0,1,1.52,3.16H20.7a2.59,2.59,0,0,0-.78-1.61,2.47,2.47,0,0,0-1.65-.51,2.33,2.33,0,0,0-2.05,1,5.23,5.23,0,0,0-.71,3V35a5.07,5.07,0,0,0,.76,3,2.64,2.64,0,0,0,2.24,1,2.89,2.89,0,0,0,2.12-.64v-2.2h-2.4V34.28h5Z"/><path class="cls-5" d="M28.21,41H25.57V28.2h2.64Z"/><path class="cls-5" d="M38.35,35.77H33.29V41H30.65V28.2H39v2.14H33.29v3.3h5.06Z"/><path class="cls-5" d="M51,34.89a7.84,7.84,0,0,1-.66,3.32,5.07,5.07,0,0,1-1.92,2.19,5.23,5.23,0,0,1-2.85.78,5.33,5.33,0,0,1-2.84-.77,5.13,5.13,0,0,1-1.93-2.18A7.41,7.41,0,0,1,40.13,35v-.63A7.62,7.62,0,0,1,40.81,31a5,5,0,0,1,1.92-2.2,5.64,5.64,0,0,1,5.69,0A5,5,0,0,1,50.34,31,7.61,7.61,0,0,1,51,34.32Zm-2.67-.58a5.4,5.4,0,0,0-.72-3.06,2.37,2.37,0,0,0-2.06-1,2.34,2.34,0,0,0-2,1,5.29,5.29,0,0,0-.73,3v.62a5.44,5.44,0,0,0,.72,3A2.34,2.34,0,0,0,45.59,39a2.3,2.3,0,0,0,2-1,5.3,5.3,0,0,0,.72-3Z"/><path class="cls-5" d="M59.58,37.64a1.34,1.34,0,0,0-.53-1.14,7,7,0,0,0-1.9-.85A13.63,13.63,0,0,1,55,34.78,3.57,3.57,0,0,1,52.8,31.6a3.1,3.1,0,0,1,.58-1.85,3.87,3.87,0,0,1,1.68-1.27A6.42,6.42,0,0,1,57.52,28a5.75,5.75,0,0,1,2.44.49,3.93,3.93,0,0,1,1.67,1.41A3.67,3.67,0,0,1,62.22,32H59.58A1.71,1.71,0,0,0,59,30.62a2.26,2.26,0,0,0-1.56-.49,2.39,2.39,0,0,0-1.5.41,1.27,1.27,0,0,0-.53,1.07,1.22,1.22,0,0,0,.62,1,7.37,7.37,0,0,0,1.85.79,7.93,7.93,0,0,1,3.28,1.68,3.33,3.33,0,0,1,1,2.5A3.08,3.08,0,0,1,61,40.23a5.47,5.47,0,0,1-3.38,1,6.41,6.41,0,0,1-2.69-.55A4.13,4.13,0,0,1,53,39.15,3.81,3.81,0,0,1,52.4,37h2.65c0,1.42.84,2.12,2.53,2.12a2.5,2.5,0,0,0,1.47-.38A1.24,1.24,0,0,0,59.58,37.64Z"/></g></g></g></g></g></g></g></g></svg>