<svg id="Capa_1" data-name="Capa 1" xmlns="http://www.w3.org/2000/svg" xmlns:xlink="http://www.w3.org/1999/xlink" width="53" height="49" viewBox="0 0 53 49"><defs><style>.cls-1{fill:#fff;}.cls-2{fill:#5ed7c6;}.cls-3{mask:url(#mask);}.cls-4{isolation:isolate;}</style><mask id="mask" x="7.84" y="16.94" width="47.69" height="19.52" maskUnits="userSpaceOnUse"><g id="mask-2"><polygon id="path-1" class="cls-1" points="7.84 16.94 55.53 16.94 55.53 36.46 7.84 36.46 7.84 16.94"/></g></mask></defs><title>logo-mobile-modo-noct</title><g id="GIFOS"><g id="_16-UI-Kit-Modo-Nocturno" data-name="16-UI-Kit-Modo-Nocturno"><g id="logo-mobile-modo-noct"><g id="Group-5"><polygon id="Fill-1" class="cls-2" points="0 0 0 48.79 48.79 48.79 48.79 38.34 45.31 38.34 45.31 45.31 3.48 45.31 3.48 3.48 34.85 3.48 34.85 13.94 45.31 13.94 45.31 20.91 48.79 20.91 48.79 10.46 38.34 0 0 0"/><g id="Group-4"><g class="cls-3"><g id="GIFOS-2" data-name="GIFOS" class="cls-4"><g class="cls-4"><path class="cls-1" d="M18,34.56a4.1,4.1,0,0,1-1.79,1.18,7.49,7.49,0,0,1-2.57.42,5.11,5.11,0,0,1-2.59-.65,4.26,4.26,0,0,1-1.71-1.87,6.5,6.5,0,0,1-.63-2.88V30A7,7,0,0,1,9.31,27,4.19,4.19,0,0,1,11,25.13a4.81,4.81,0,0,1,2.54-.66,4.75,4.75,0,0,1,3.16,1A4.15,4.15,0,0,1,18,28.24H15.73A2.23,2.23,0,0,0,15,26.81a2.19,2.19,0,0,0-1.47-.45,2.08,2.08,0,0,0-1.82.9,4.66,4.66,0,0,0-.63,2.67v.73a4.45,4.45,0,0,0,.68,2.7,2.31,2.31,0,0,0,2,.91,2.56,2.56,0,0,0,1.88-.56v-2H13.54V30H18Z"/><path class="cls-1" d="M22.41,36H20.06V24.63h2.35Z"/><path class="cls-1" d="M31.42,31.35h-4.5V36H24.58V24.63H32v1.89H26.92v2.94h4.5Z"/><path class="cls-1" d="M42.69,30.57a6.85,6.85,0,0,1-.6,3,4.44,4.44,0,0,1-1.7,1.95,4.66,4.66,0,0,1-2.53.69,4.76,4.76,0,0,1-2.52-.68,4.52,4.52,0,0,1-1.72-1.94A6.59,6.59,0,0,1,33,30.63v-.56a6.75,6.75,0,0,1,.61-3,4.49,4.49,0,0,1,1.71-2,5,5,0,0,1,5,0,4.49,4.49,0,0,1,1.71,2,6.73,6.73,0,0,1,.61,2.95Zm-2.38-.52a4.74,4.74,0,0,0-.64-2.71,2.27,2.27,0,0,0-3.65,0,4.78,4.78,0,0,0-.64,2.7v.55a4.81,4.81,0,0,0,.64,2.7,2.07,2.07,0,0,0,1.84,1,2,2,0,0,0,1.81-.92,4.81,4.81,0,0,0,.64-2.7Z"/><path class="cls-1" d="M50.29,33a1.19,1.19,0,0,0-.47-1,5.86,5.86,0,0,0-1.69-.75,13.59,13.59,0,0,1-1.93-.78,3.15,3.15,0,0,1-1.93-2.82A2.75,2.75,0,0,1,44.79,26a3.33,3.33,0,0,1,1.49-1.12,5.43,5.43,0,0,1,2.18-.41,5.16,5.16,0,0,1,2.17.44,3.38,3.38,0,0,1,1.48,1.25A3.24,3.24,0,0,1,52.64,28H50.3a1.52,1.52,0,0,0-.5-1.21,2,2,0,0,0-1.38-.43,2.15,2.15,0,0,0-1.33.36,1.14,1.14,0,0,0-.48,1,1.08,1.08,0,0,0,.56.93,6.35,6.35,0,0,0,1.64.7,7.13,7.13,0,0,1,2.92,1.49A3,3,0,0,1,52.64,33a2.74,2.74,0,0,1-1.12,2.32,4.86,4.86,0,0,1-3,.84,5.76,5.76,0,0,1-2.39-.48,3.79,3.79,0,0,1-1.65-1.32,3.36,3.36,0,0,1-.57-1.94h2.36c0,1.26.75,1.88,2.25,1.88a2.16,2.16,0,0,0,1.3-.34A1.1,1.1,0,0,0,50.29,33Z"/></g></g></g></g></g></g></g></g></svg>